HIERARCHY
ROOT Hips
{
	OFFSET 0.000000 8.830580 0.000000
	CHANNELS 6 Xposition Yposition Zposition Zrotation Yrotation Xrotation 
	JOINT Spine
	{
		OFFSET 0.000000 0.010000 0.000000
		CHANNELS 3 Zrotation Yrotation Xrotation
		JOINT Spine1
		{
			OFFSET 0.000000 2.459130 0.000000
			CHANNELS 3 Zrotation Yrotation Xrotation
			JOINT Neck
			{
				OFFSET 0.000000 2.484630 0.000000
				CHANNELS 3 Zrotation Yrotation Xrotation
				JOINT Head_virtual
				{
					OFFSET 0.000000 0.000000 0.000000
					CHANNELS 3 Zrotation Yrotation Xrotation
					JOINT Head
					{
						OFFSET 0.000000 0.927525 0.000000
						CHANNELS 3 Zrotation Yrotation Xrotation
						End Site
						{
							OFFSET 0.000000 0.000000 0.000000
						}
					}
				}
				JOINT LeftUpArm_virtual
				{
					OFFSET 0.000000 0.000000 0.000000
					CHANNELS 3 Zrotation Yrotation Xrotation
					JOINT LeftUpArm
					{
						OFFSET 1.248820 0.000000 0.000000
						CHANNELS 3 Zrotation Yrotation Xrotation
						JOINT LeftForeArm
						{
							OFFSET 2.597580 0.000000 0.000000
							CHANNELS 3 Zrotation Yrotation Xrotation
							JOINT LeftHand
							{
								OFFSET 2.455420 0.000000 0.000000
								CHANNELS 3 Zrotation Yrotation Xrotation
								End Site
								{
									OFFSET 0.000000 0.000000 0.000000
								}
							}
						}
					}
				}
				JOINT RightUpArm_virtual
				{
					OFFSET -0.000000 -0.000000 -0.000000
					CHANNELS 3 Zrotation Yrotation Xrotation
					JOINT RightUpArm
					{
						OFFSET -1.248820 -0.000000 -0.000000
						CHANNELS 3 Zrotation Yrotation Xrotation
						JOINT RightForeArm
						{
							OFFSET -2.597580 -0.000000 -0.000000
							CHANNELS 3 Zrotation Yrotation Xrotation
							JOINT RightHand
							{
								OFFSET -2.455420 -0.000000 -0.000000
								CHANNELS 3 Zrotation Yrotation Xrotation
								End Site
								{
									OFFSET 0.000000 0.000000 0.000000
								}
							}
						}
					}
				}
			}
		}
	}
	JOINT LeftUpLeg
	{
		OFFSET 1.271939 0.000000 0.000000
		CHANNELS 3 Zrotation Yrotation Xrotation
		JOINT LeftLowLeg
		{
			OFFSET 0.000000 -4.342910 0.000000
			CHANNELS 3 Zrotation Yrotation Xrotation
			JOINT LeftFoot
			{
				OFFSET 0.000000 -4.487670 0.000000
				CHANNELS 3 Zrotation Yrotation Xrotation
				JOINT LeftToeBase
				{
					OFFSET 0.000000 0.000000 1.515070
					CHANNELS 3 Zrotation Yrotation Xrotation
					End Site
					{
						OFFSET 0.000000 0.000000 0.000000
					}
				}
			}
		}
	}
	JOINT RightUpLeg
	{
		OFFSET -1.271939 0.000000 0.000000
		CHANNELS 3 Zrotation Yrotation Xrotation
		JOINT RightLowLeg
		{
			OFFSET 0.000000 -4.342910 0.000000
			CHANNELS 3 Zrotation Yrotation Xrotation
			JOINT RightFoot
			{
				OFFSET 0.000000 -4.487670 0.000000
				CHANNELS 3 Zrotation Yrotation Xrotation
				JOINT RightToeBase
				{
					OFFSET 0.000000 0.000000 1.515070
					CHANNELS 3 Zrotation Yrotation Xrotation
					End Site
					{
						OFFSET 0.000000 0.000000 0.000000
					}
				}
			}
		}
	}
}
MOTION
Frames: 11
Frame Time: 0.041667
-19.395487 8.996076 34.069507 -176.121471 -2.855554 -163.517138 7.371028 0.121719 -25.574862 -3.665346 1.840655 7.023012 0.000000 0.000000 0.000000 6.843082 6.772163 -4.948057 -14.617001 -7.262783 -77.035924 -29.112700 -0.801471 10.040200 -42.314701 -10.765000 -3.061070 0.000000 -9.812060 0.000000 9.410890 9.914260 13.052300 30.866100 -3.995140 3.596520 44.342201 5.841780 9.363007 0.000000 15.381900 0.000000 -3.190380 -4.375350 -2.655570 7.413189 -21.577797 -13.082055 0.000000 0.000000 4.458890 -2.403812 21.676743 -4.390424 0.000000 0.000000 -10.666650 1.669783 24.565446 -12.473988 0.000000 0.000000 4.059750 2.695889 -29.082966 2.649216 0.000000 0.000000 -19.754950 
-19.394805 8.996482 34.069238 -176.121682 -2.761237 -163.579265 7.350082 0.163177 -25.633412 -3.702199 1.907234 7.073298 0.000000 0.000000 0.000000 6.981812 6.695180 -4.777743 -14.599184 -7.224016 -76.841781 -29.126900 -0.844788 10.079900 -42.156200 -10.978900 -3.249920 0.000000 -10.406100 0.000000 9.942950 9.642670 12.120700 30.799700 -3.884830 3.662670 44.307499 6.075950 9.648987 0.000000 15.643100 0.000000 -3.391120 -4.262830 -2.802020 7.336119 -21.408579 -13.016996 0.000000 0.000000 4.530210 -2.373031 21.588029 -4.398161 0.000000 0.000000 -10.764690 1.663388 24.688552 -12.438619 0.000000 0.000000 4.098650 2.727632 -29.104127 2.640374 0.000000 0.000000 -19.756810 
-19.395294 8.996667 34.068788 -176.125192 -2.719754 -163.658253 7.358142 0.205761 -25.664177 -3.783224 1.932365 7.105672 0.000000 0.000000 0.000000 7.082872 6.643390 -4.609555 -14.571375 -7.198570 -76.684250 -29.119801 -0.835075 10.097800 -42.064098 -11.137300 -3.446750 0.000000 -10.886900 0.000000 10.392300 9.480550 11.535000 30.766399 -3.779140 3.685540 44.266300 6.190920 9.958008 0.000000 15.913900 0.000000 -3.443800 -4.519200 -2.391340 7.286860 -21.412873 -12.945917 0.000000 0.000000 4.581300 -2.362767 21.626447 -4.413213 0.000000 0.000000 -10.754430 1.678889 24.719168 -12.366772 0.000000 0.000000 4.121840 2.742709 -29.088435 2.635393 0.000000 0.000000 -19.780010 
-19.395220 8.996625 34.066539 -176.118108 -2.689074 -163.728809 7.345651 0.236485 -25.736735 -3.795484 1.987833 7.177472 0.000000 0.000000 0.000000 7.149507 6.574618 -4.479849 -14.541009 -7.197705 -76.510127 -29.136000 -0.840543 10.093400 -42.022499 -11.208000 -3.549540 0.000000 -11.255600 0.000000 10.692800 9.392510 11.184200 30.739901 -3.764780 3.666080 44.216999 6.257550 10.381989 0.000000 15.984200 0.000000 -3.449820 -4.291370 -2.562010 7.253185 -21.407812 -12.862143 0.000000 0.000000 4.612060 -2.363919 21.645423 -4.442639 0.000000 0.000000 -10.751490 1.708452 24.776531 -12.292939 0.000000 0.000000 4.145910 2.756035 -29.109495 2.616241 0.000000 0.000000 -19.773050 
-19.395226 8.996521 34.064508 -176.120515 -2.681428 -163.763096 7.333810 0.261065 -25.795787 -3.804489 2.032136 7.212440 0.000000 0.000000 0.000000 7.179588 6.523123 -4.390256 -14.507575 -7.218109 -76.401503 -29.156099 -0.822045 10.096800 -41.988701 -11.219900 -3.520290 0.000000 -11.448300 0.000000 10.731300 9.360980 10.964400 30.744900 -3.778050 3.670670 44.178600 6.270550 10.562012 0.000000 16.019400 0.000000 -3.407350 -4.297060 -1.587730 7.229566 -21.410945 -12.817908 0.000000 0.000000 4.628840 -2.365830 21.653057 -4.459451 0.000000 0.000000 -10.749300 1.714675 24.832143 -12.251737 0.000000 0.000000 4.157400 2.766935 -29.150958 2.596452 0.000000 0.000000 -19.774300 
-19.395229 8.995934 34.060907 -176.119735 -2.685832 -163.781126 7.324687 0.291227 -25.906560 -3.825368 2.083890 7.247789 0.000000 0.000000 0.000000 7.220330 6.466121 -4.256334 -14.459373 -7.243966 -76.275375 -29.199699 -0.808907 10.174700 -41.952400 -11.152100 -3.422510 0.000000 -11.724100 0.000000 10.781600 9.490700 11.039200 30.769199 -3.784970 3.715340 44.153801 6.234200 10.591003 0.000000 15.961900 0.000000 -3.125970 -4.347710 -1.900480 7.217033 -21.422055 -12.779556 0.000000 0.000000 4.636180 -2.356201 21.661625 -4.485982 0.000000 0.000000 -10.752310 1.720317 24.909633 -12.220568 0.000000 0.000000 4.174440 2.775467 -29.231595 2.561016 0.000000 0.000000 -19.787840 
-19.395128 8.994920 34.056133 -176.117340 -2.748868 -163.813363 7.318833 0.314720 -26.036622 -3.870335 2.130112 7.322407 0.000000 0.000000 0.000000 7.302679 6.390172 -4.155285 -14.400352 -7.256405 -76.150558 -29.267500 -0.771407 10.245000 -41.898300 -10.965600 -3.018240 0.000000 -12.007500 0.000000 10.576800 9.657980 11.055200 30.873301 -3.833330 3.733990 44.088001 6.039150 10.743011 0.000000 15.927200 0.000000 -3.017330 -4.357160 -1.588440 7.224980 -21.510060 -12.734775 0.000000 0.000000 4.643970 -2.383715 21.683973 -4.541262 0.000000 0.000000 -10.734810 1.765578 24.900860 -12.147507 0.000000 0.000000 4.178390 2.774163 -29.287675 2.512878 0.000000 0.000000 -19.766810 
-19.395046 8.993914 34.051968 -176.118223 -2.813017 -163.830732 7.308294 0.316351 -26.147928 -3.892916 2.163201 7.395640 0.000000 0.000000 0.000000 7.350995 6.346163 -4.117815 -14.332272 -7.264042 -76.075813 -29.348499 -0.713712 10.379000 -41.848598 -10.782600 -2.617990 0.000000 -12.237600 0.000000 10.422100 9.729490 11.814900 30.942101 -3.869210 3.774320 44.092899 5.821230 10.773010 0.000000 15.787200 0.000000 -2.823190 -4.385520 -1.678780 7.215884 -21.490724 -12.707819 0.000000 0.000000 4.659000 -2.379181 21.603010 -4.579599 0.000000 0.000000 -10.732950 1.801426 24.873705 -12.094218 0.000000 0.000000 4.181690 2.790393 -29.318138 2.460171 0.000000 0.000000 -19.778760 
-19.395862 8.992852 34.048377 -176.117161 -2.961741 -163.733922 7.309192 0.286553 -26.363554 -3.896987 2.174741 7.476536 0.000000 0.000000 0.000000 7.388455 6.308734 -4.104095 -14.263837 -7.276319 -76.027470 -29.462400 -0.626521 10.493200 -41.799500 -10.547000 -2.124600 0.000000 -12.411100 0.000000 10.039000 9.687390 12.368300 30.988400 -3.932630 3.740130 44.139999 5.547960 10.859009 0.000000 15.627600 0.000000 -2.777670 -4.532840 -1.491660 7.296254 -21.607299 -12.840816 0.000000 0.000000 4.685960 -2.406023 21.582451 -4.626933 0.000000 0.000000 -10.727440 1.810722 24.748386 -12.143944 0.000000 0.000000 4.155910 2.795721 -29.329918 2.416973 0.000000 0.000000 -19.783340 
-19.395348 8.992324 34.043923 -176.129361 -3.010179 -163.806655 7.269313 0.290242 -26.400065 -3.906750 2.233450 7.547617 0.000000 0.000000 0.000000 7.469222 6.283333 -4.050469 -14.211474 -7.276847 -76.044486 -29.542299 -0.515560 10.552800 -41.823299 -10.258200 -1.630630 0.000000 -12.478400 0.000000 9.798690 9.716320 13.055900 31.060900 -4.025090 3.764980 44.211800 5.295870 10.829010 0.000000 15.367500 0.000000 -2.661760 -4.914580 0.786806 7.257116 -21.619658 -12.729780 0.000000 0.000000 4.659640 -2.409536 21.536137 -4.635024 0.000000 0.000000 -10.730760 1.860406 24.727136 -12.029534 0.000000 0.000000 4.157840 2.763812 -29.368866 2.396665 0.000000 0.000000 -19.784530 
-19.396695 8.991829 34.042555 -176.131006 -3.159337 -163.766615 7.283352 0.309915 -26.455716 -3.988481 2.226724 7.504079 0.000000 0.000000 0.000000 7.573763 6.274805 -3.947357 -14.149683 -7.276996 -76.116005 -29.608000 -0.407666 10.623600 -41.859699 -9.907300 -0.966282 0.000000 -12.460800 0.000000 9.477840 9.764900 13.384500 31.110001 -4.124750 3.731480 44.373299 4.940190 10.731995 0.000000 15.015500 0.000000 -2.394540 -5.069540 -0.104328 7.318148 -21.761044 -12.833580 0.000000 0.000000 4.714970 -2.405888 21.546270 -4.661701 0.000000 0.000000 -10.718250 1.872775 24.633408 -12.042779 0.000000 0.000000 4.145920 2.814442 -29.396119 2.347827 0.000000 0.000000 -19.791250 
